<svg width="4744" height="24" viewBox="0 0 4744 24" fill="none" xmlns="http://www.w3.org/2000/svg">
<rect y="12" width="4743.18" height="12" fill="#13294B"/>
<path d="M4107.59 0L4123.18 12H4092L4107.59 0Z" fill="#041734"/>
<path d="M4123.09 12L4138.68 24H4107.5L4123.09 12Z" fill="#041734"/>
<path d="M4107.59 12L4115.38 18H4099.79L4107.59 12Z" fill="#041734"/>
<path d="M4138.59 0L4154.18 12H4123L4138.59 0Z" fill="#041734"/>
<path d="M4154.09 12L4169.68 24H4138.5L4154.09 12Z" fill="#041734"/>
<path d="M4138.59 12L4146.38 18H4130.79L4138.59 12Z" fill="#041734"/>
<path d="M4169.59 0L4185.18 12H4154L4169.59 0Z" fill="#041734"/>
<path d="M4185.09 12L4200.68 24H4169.5L4185.09 12Z" fill="#041734"/>
<path d="M4169.59 12L4177.38 18H4161.79L4169.59 12Z" fill="#041734"/>
<path d="M4200.59 0L4216.18 12H4185L4200.59 0Z" fill="#041734"/>
<path d="M4216.09 12L4231.68 24H4200.5L4216.09 12Z" fill="#041734"/>
<path d="M4200.59 12L4208.38 18H4192.79L4200.59 12Z" fill="#041734"/>
<path d="M4231.59 0L4247.18 12H4216L4231.59 0Z" fill="#041734"/>
<path d="M4247.09 12L4262.68 24H4231.5L4247.09 12Z" fill="#041734"/>
<path d="M4230.59 12L4238.38 18H4222.79L4230.59 12Z" fill="#041734"/>
<path d="M3177.59 0L3193.18 12H3162L3177.59 0Z" fill="#041734"/>
<path d="M3177.59 0L3193.18 12H3162L3177.59 0Z" fill="#041734"/>
<path d="M3193.09 12L3208.68 24H3177.5L3193.09 12Z" fill="#041734"/>
<path d="M3162.09 12L3177.68 24H3162L3162.09 12Z" fill="#041734"/>
<path d="M3208.59 0L3224.18 12H3193L3208.59 0Z" fill="#041734"/>
<path d="M3224.09 12L3239.68 24H3208.5L3224.09 12Z" fill="#041734"/>
<path d="M3208.59 12L3216.38 18H3200.79L3208.59 12Z" fill="#041734"/>
<path d="M3177.59 12L3185.38 18H3169.79L3177.59 12Z" fill="#041734"/>
<path d="M3239.59 0L3255.18 12H3224L3239.59 0Z" fill="#041734"/>
<path d="M3255.09 12L3270.68 24H3239.5L3255.09 12Z" fill="#041734"/>
<path d="M3239.59 12L3247.38 18H3231.79L3239.59 12Z" fill="#041734"/>
<path d="M3270.59 0L3286.18 12H3255L3270.59 0Z" fill="#041734"/>
<path d="M3286.09 12L3301.68 24H3270.5L3286.09 12Z" fill="#041734"/>
<path d="M3270.59 12L3278.38 18H3262.79L3270.59 12Z" fill="#041734"/>
<path d="M3301.59 0L3317.18 12H3286L3301.59 0Z" fill="#041734"/>
<path d="M3317.09 12L3332.68 24H3301.5L3317.09 12Z" fill="#041734"/>
<path d="M3301.59 12L3309.38 18H3293.79L3301.59 12Z" fill="#041734"/>
<path d="M3952.59 0L3968.18 12H3937L3952.59 0Z" fill="#041734"/>
<path d="M3968.09 12L3983.68 24H3952.5L3968.09 12Z" fill="#041734"/>
<path d="M3952.59 12L3960.38 18H3944.79L3952.59 12Z" fill="#041734"/>
<path d="M3983.59 0L3999.18 12H3968L3983.59 0Z" fill="#041734"/>
<path d="M3999.09 12L4014.68 24H3983.5L3999.09 12Z" fill="#041734"/>
<path d="M3983.59 12L3991.38 18H3975.79L3983.59 12Z" fill="#041734"/>
<path d="M4014.59 0L4030.18 12H3999L4014.59 0Z" fill="#041734"/>
<path d="M4030.09 12L4045.68 24H4014.5L4030.09 12Z" fill="#041734"/>
<path d="M4014.59 12L4022.38 18H4006.79L4014.59 12Z" fill="#041734"/>
<path d="M4045.59 0L4061.18 12H4030L4045.59 0Z" fill="#041734"/>
<path d="M4061.09 12L4076.68 24H4045.5L4061.09 12Z" fill="#041734"/>
<path d="M4045.59 12L4053.38 18H4037.79L4045.59 12Z" fill="#041734"/>
<path d="M4076.59 0L4092.18 12H4061L4076.59 0Z" fill="#041734"/>
<path d="M4092.09 12L4107.68 24H4076.5L4092.09 12Z" fill="#041734"/>
<path d="M4076.59 12L4084.38 18H4068.79L4076.59 12Z" fill="#041734"/>
<path d="M3797.59 0L3813.18 12H3782L3797.59 0Z" fill="#041734"/>
<path d="M3813.09 12L3828.68 24H3797.5L3813.09 12Z" fill="#041734"/>
<path d="M3797.59 12L3805.38 18H3789.79L3797.59 12Z" fill="#041734"/>
<path d="M3828.59 0L3844.18 12H3813L3828.59 0Z" fill="#041734"/>
<path d="M3844.09 12L3859.68 24H3828.5L3844.09 12Z" fill="#041734"/>
<path d="M3828.59 12L3836.38 18H3820.79L3828.59 12Z" fill="#041734"/>
<path d="M3859.59 0L3875.18 12H3844L3859.59 0Z" fill="#041734"/>
<path d="M3875.09 12L3890.68 24H3859.5L3875.09 12Z" fill="#041734"/>
<path d="M3859.59 12L3867.38 18H3851.79L3859.59 12Z" fill="#041734"/>
<path d="M3890.59 0L3906.18 12H3875L3890.59 0Z" fill="#041734"/>
<path d="M3906.09 12L3921.68 24H3890.5L3906.09 12Z" fill="#041734"/>
<path d="M3890.59 12L3898.38 18H3882.79L3890.59 12Z" fill="#041734"/>
<path d="M3921.59 0L3937.18 12H3906L3921.59 0Z" fill="#041734"/>
<path d="M3937.09 12L3952.68 24H3921.5L3937.09 12Z" fill="#041734"/>
<path d="M3921.59 12L3929.38 18H3913.79L3921.59 12Z" fill="#041734"/>
<path d="M3642.59 0L3658.18 12H3627L3642.59 0Z" fill="#041734"/>
<path d="M3658.09 12L3673.68 24H3642.5L3658.09 12Z" fill="#041734"/>
<path d="M3642.59 12L3650.38 18H3634.79L3642.59 12Z" fill="#041734"/>
<path d="M3673.59 0L3689.18 12H3658L3673.59 0Z" fill="#041734"/>
<path d="M3689.09 12L3704.68 24H3673.5L3689.09 12Z" fill="#041734"/>
<path d="M3673.59 12L3681.38 18H3665.79L3673.59 12Z" fill="#041734"/>
<path d="M3704.59 0L3720.18 12H3689L3704.59 0Z" fill="#041734"/>
<path d="M3720.09 12L3735.68 24H3704.5L3720.09 12Z" fill="#041734"/>
<path d="M3704.59 12L3712.38 18H3696.79L3704.59 12Z" fill="#041734"/>
<path d="M3735.59 0L3751.18 12H3720L3735.59 0Z" fill="#041734"/>
<path d="M3751.09 12L3766.68 24H3735.5L3751.09 12Z" fill="#041734"/>
<path d="M3735.59 12L3743.38 18H3727.79L3735.59 12Z" fill="#041734"/>
<path d="M3766.59 0L3782.18 12H3751L3766.59 0Z" fill="#041734"/>
<path d="M3782.09 12L3797.68 24H3766.5L3782.09 12Z" fill="#041734"/>
<path d="M3766.59 12L3774.38 18H3758.79L3766.59 12Z" fill="#041734"/>
<path d="M4262.59 0L4278.18 12H4247L4262.59 0Z" fill="#041734"/>
<path d="M4278.09 12L4293.68 24H4262.5L4278.09 12Z" fill="#041734"/>
<path d="M4262.59 12L4270.38 18H4254.79L4262.59 12Z" fill="#041734"/>
<path d="M4293.59 0L4309.18 12H4278L4293.59 0Z" fill="#041734"/>
<path d="M4309.09 12L4324.68 24H4293.5L4309.09 12Z" fill="#041734"/>
<path d="M4293.59 12L4301.38 18H4285.79L4293.59 12Z" fill="#041734"/>
<path d="M4324.59 0L4340.18 12H4309L4324.59 0Z" fill="#041734"/>
<path d="M4340.09 12L4355.68 24H4324.5L4340.09 12Z" fill="#041734"/>
<path d="M4324.59 12L4332.38 18H4316.79L4324.59 12Z" fill="#041734"/>
<path d="M4355.59 0L4371.18 12H4340L4355.59 0Z" fill="#041734"/>
<path d="M4371.09 12L4386.68 24H4355.5L4371.09 12Z" fill="#041734"/>
<path d="M4355.59 12L4363.38 18H4347.79L4355.59 12Z" fill="#041734"/>
<path d="M4386.59 0L4402.18 12H4371L4386.59 0Z" fill="#041734"/>
<path d="M4402.09 12L4417.68 24H4386.5L4402.09 12Z" fill="#041734"/>
<path d="M4386.59 12L4394.38 18H4378.79L4386.59 12Z" fill="#041734"/>
<path d="M4417.59 0L4433.18 12H4402L4417.59 0Z" fill="#041734"/>
<path d="M4433.09 12L4448.68 24H4417.5L4433.09 12Z" fill="#041734"/>
<path d="M4417.59 12L4425.38 18H4409.79L4417.59 12Z" fill="#041734"/>
<path d="M4448.59 0L4464.18 12H4433L4448.59 0Z" fill="#041734"/>
<path d="M4464.09 12L4479.68 24H4448.5L4464.09 12Z" fill="#041734"/>
<path d="M4448.59 12L4456.38 18H4440.79L4448.59 12Z" fill="#041734"/>
<path d="M4479.59 0L4495.18 12H4464L4479.59 0Z" fill="#041734"/>
<path d="M4495.09 12L4510.68 24H4479.5L4495.09 12Z" fill="#041734"/>
<path d="M4479.59 12L4487.38 18H4471.79L4479.59 12Z" fill="#041734"/>
<path d="M4510.59 0L4526.18 12H4495L4510.59 0Z" fill="#041734"/>
<path d="M4526.09 12L4541.68 24H4510.5L4526.09 12Z" fill="#041734"/>
<path d="M4510.59 12L4518.38 18H4502.79L4510.59 12Z" fill="#041734"/>
<path d="M4541.59 0L4557.18 12H4526L4541.59 0Z" fill="#041734"/>
<path d="M4557.09 12L4572.68 24H4541.5L4557.09 12Z" fill="#041734"/>
<path d="M4541.59 12L4549.38 18H4533.79L4541.59 12Z" fill="#041734"/>
<path d="M4572.59 0L4588.18 12H4557L4572.59 0Z" fill="#041734"/>
<path d="M4588.09 12L4603.68 24H4572.5L4588.09 12Z" fill="#041734"/>
<path d="M4572.59 12L4580.38 18H4564.79L4572.59 12Z" fill="#041734"/>
<path d="M4603.59 0L4619.18 12H4588L4603.59 0Z" fill="#041734"/>
<path d="M4619.09 12L4634.68 24H4603.5L4619.09 12Z" fill="#041734"/>
<path d="M4603.59 12L4611.38 18H4595.79L4603.59 12Z" fill="#041734"/>
<path d="M4634.59 0L4650.18 12H4619L4634.59 0Z" fill="#041734"/>
<path d="M4650.09 12L4665.68 24H4634.5L4650.09 12Z" fill="#041734"/>
<path d="M4634.59 12L4642.38 18H4626.79L4634.59 12Z" fill="#041734"/>
<path d="M4665.59 0L4681.18 12H4650L4665.59 0Z" fill="#041734"/>
<path d="M4681.09 12L4696.68 24H4665.5L4681.09 12Z" fill="#041734"/>
<path d="M4665.59 12L4673.38 18H4657.79L4665.59 12Z" fill="#041734"/>
<path d="M4696.59 0L4712.18 12H4681L4696.59 0Z" fill="#041734"/>
<path d="M4712.09 12L4727.68 24H4696.5L4712.09 12Z" fill="#041734"/>
<path d="M4696.59 12L4704.38 18H4688.79L4696.59 12Z" fill="#041734"/>
<path d="M4727.59 0L4743.18 12H4712L4727.59 0Z" fill="#041734"/>
<path d="M4743.09 12V24H4727.5L4743.09 12Z" fill="#041734"/>
<path d="M4727.59 12L4735.38 18H4719.79L4727.59 12Z" fill="#041734"/>
<path d="M3487.59 0L3503.18 12H3472L3487.59 0Z" fill="#041734"/>
<path d="M3503.09 12L3518.68 24H3487.5L3503.09 12Z" fill="#041734"/>
<path d="M3487.59 12L3495.38 18H3479.79L3487.59 12Z" fill="#041734"/>
<path d="M3518.59 0L3534.18 12H3503L3518.59 0Z" fill="#041734"/>
<path d="M3534.09 12L3549.68 24H3518.5L3534.09 12Z" fill="#041734"/>
<path d="M3518.59 12L3526.38 18H3510.79L3518.59 12Z" fill="#041734"/>
<path d="M3549.59 0L3565.18 12H3534L3549.59 0Z" fill="#041734"/>
<path d="M3565.09 12L3580.68 24H3549.5L3565.09 12Z" fill="#041734"/>
<path d="M3549.59 12L3557.38 18H3541.79L3549.59 12Z" fill="#041734"/>
<path d="M3580.59 0L3596.18 12H3565L3580.59 0Z" fill="#041734"/>
<path d="M3596.09 12L3611.68 24H3580.5L3596.09 12Z" fill="#041734"/>
<path d="M3580.59 12L3588.38 18H3572.79L3580.59 12Z" fill="#041734"/>
<path d="M3611.59 0L3627.18 12H3596L3611.59 0Z" fill="#041734"/>
<path d="M3627.09 12L3642.68 24H3611.5L3627.09 12Z" fill="#041734"/>
<path d="M3611.59 12L3619.38 18H3603.79L3611.59 12Z" fill="#041734"/>
<path d="M3332.59 0L3348.18 12H3317L3332.59 0Z" fill="#041734"/>
<path d="M3348.09 12L3363.68 24H3332.5L3348.09 12Z" fill="#041734"/>
<path d="M3332.59 12L3340.38 18H3324.79L3332.59 12Z" fill="#041734"/>
<path d="M3363.59 0L3379.18 12H3348L3363.59 0Z" fill="#041734"/>
<path d="M3379.09 12L3394.68 24H3363.5L3379.09 12Z" fill="#041734"/>
<path d="M3363.59 12L3371.38 18H3355.79L3363.59 12Z" fill="#041734"/>
<path d="M3394.59 0L3410.18 12H3379L3394.59 0Z" fill="#041734"/>
<path d="M3410.09 12L3425.68 24H3394.5L3410.09 12Z" fill="#041734"/>
<path d="M3394.59 12L3402.38 18H3386.79L3394.59 12Z" fill="#041734"/>
<path d="M3425.59 0L3441.18 12H3410L3425.59 0Z" fill="#041734"/>
<path d="M3441.09 12L3456.68 24H3425.5L3441.09 12Z" fill="#041734"/>
<path d="M3425.59 12L3433.38 18H3417.79L3425.59 12Z" fill="#041734"/>
<path d="M3456.59 0L3472.18 12H3441L3456.59 0Z" fill="#041734"/>
<path d="M3472.09 12L3487.68 24H3456.5L3472.09 12Z" fill="#041734"/>
<path d="M3456.59 12L3464.38 18H3448.79L3456.59 12Z" fill="#041734"/>
<path d="M945.588 0L961.177 12H930L945.588 0Z" fill="#041734"/>
<path d="M961.088 12L976.677 24H945.5L961.088 12Z" fill="#041734"/>
<path d="M945.588 12L953.383 18H937.794L945.588 12Z" fill="#041734"/>
<path d="M976.588 0L992.177 12H961L976.588 0Z" fill="#041734"/>
<path d="M992.088 12L1007.68 24H976.5L992.088 12Z" fill="#041734"/>
<path d="M976.588 12L984.383 18H968.794L976.588 12Z" fill="#041734"/>
<path d="M1007.59 0L1023.18 12H992L1007.59 0Z" fill="#041734"/>
<path d="M1023.09 12L1038.68 24H1007.5L1023.09 12Z" fill="#041734"/>
<path d="M1007.59 12L1015.38 18H999.794L1007.59 12Z" fill="#041734"/>
<path d="M1038.59 0L1054.18 12H1023L1038.59 0Z" fill="#041734"/>
<path d="M1054.09 12L1069.68 24H1038.5L1054.09 12Z" fill="#041734"/>
<path d="M1038.59 12L1046.38 18H1030.79L1038.59 12Z" fill="#041734"/>
<path d="M1069.59 0L1085.18 12H1054L1069.59 0Z" fill="#041734"/>
<path d="M1085.09 12L1100.68 24H1069.5L1085.09 12Z" fill="#041734"/>
<path d="M1068.59 12L1076.38 18H1060.79L1068.59 12Z" fill="#041734"/>
<path d="M15.5885 0L31.1769 12H0L15.5885 0Z" fill="#041734"/>
<path d="M15.5885 0L31.1769 12H0L15.5885 0Z" fill="#041734"/>
<path d="M31.0885 12L46.6769 24H15.5L31.0885 12Z" fill="#041734"/>
<path d="M0.0884571 12L15.6769 24H0L0.0884571 12Z" fill="#041734"/>
<path d="M46.5885 0L62.1769 12H31L46.5885 0Z" fill="#041734"/>
<path d="M62.0885 12L77.6769 24H46.5L62.0885 12Z" fill="#041734"/>
<path d="M46.5885 12L54.3827 18H38.7942L46.5885 12Z" fill="#041734"/>
<path d="M15.5885 12L23.3827 18H7.79423L15.5885 12Z" fill="#041734"/>
<path d="M77.5885 0L93.1769 12H62L77.5885 0Z" fill="#041734"/>
<path d="M93.0885 12L108.677 24H77.5L93.0885 12Z" fill="#041734"/>
<path d="M77.5885 12L85.3827 18H69.7942L77.5885 12Z" fill="#041734"/>
<path d="M108.588 0L124.177 12H93L108.588 0Z" fill="#041734"/>
<path d="M124.088 12L139.677 24H108.5L124.088 12Z" fill="#041734"/>
<path d="M108.588 12L116.383 18H100.794L108.588 12Z" fill="#041734"/>
<path d="M139.588 0L155.177 12H124L139.588 0Z" fill="#041734"/>
<path d="M155.088 12L170.677 24H139.5L155.088 12Z" fill="#041734"/>
<path d="M139.588 12L147.383 18H131.794L139.588 12Z" fill="#041734"/>
<path d="M790.588 0L806.177 12H775L790.588 0Z" fill="#041734"/>
<path d="M806.088 12L821.677 24H790.5L806.088 12Z" fill="#041734"/>
<path d="M790.588 12L798.383 18H782.794L790.588 12Z" fill="#041734"/>
<path d="M821.588 0L837.177 12H806L821.588 0Z" fill="#041734"/>
<path d="M837.088 12L852.677 24H821.5L837.088 12Z" fill="#041734"/>
<path d="M821.588 12L829.383 18H813.794L821.588 12Z" fill="#041734"/>
<path d="M852.588 0L868.177 12H837L852.588 0Z" fill="#041734"/>
<path d="M868.088 12L883.677 24H852.5L868.088 12Z" fill="#041734"/>
<path d="M852.588 12L860.383 18H844.794L852.588 12Z" fill="#041734"/>
<path d="M883.588 0L899.177 12H868L883.588 0Z" fill="#041734"/>
<path d="M899.088 12L914.677 24H883.5L899.088 12Z" fill="#041734"/>
<path d="M883.588 12L891.383 18H875.794L883.588 12Z" fill="#041734"/>
<path d="M914.588 0L930.177 12H899L914.588 0Z" fill="#041734"/>
<path d="M930.088 12L945.677 24H914.5L930.088 12Z" fill="#041734"/>
<path d="M914.588 12L922.383 18H906.794L914.588 12Z" fill="#041734"/>
<path d="M635.588 0L651.177 12H620L635.588 0Z" fill="#041734"/>
<path d="M651.088 12L666.677 24H635.5L651.088 12Z" fill="#041734"/>
<path d="M635.588 12L643.383 18H627.794L635.588 12Z" fill="#041734"/>
<path d="M666.588 0L682.177 12H651L666.588 0Z" fill="#041734"/>
<path d="M682.088 12L697.677 24H666.5L682.088 12Z" fill="#041734"/>
<path d="M666.588 12L674.383 18H658.794L666.588 12Z" fill="#041734"/>
<path d="M697.588 0L713.177 12H682L697.588 0Z" fill="#041734"/>
<path d="M713.088 12L728.677 24H697.5L713.088 12Z" fill="#041734"/>
<path d="M697.588 12L705.383 18H689.794L697.588 12Z" fill="#041734"/>
<path d="M728.588 0L744.177 12H713L728.588 0Z" fill="#041734"/>
<path d="M744.088 12L759.677 24H728.5L744.088 12Z" fill="#041734"/>
<path d="M728.588 12L736.383 18H720.794L728.588 12Z" fill="#041734"/>
<path d="M759.588 0L775.177 12H744L759.588 0Z" fill="#041734"/>
<path d="M775.088 12L790.677 24H759.5L775.088 12Z" fill="#041734"/>
<path d="M759.588 12L767.383 18H751.794L759.588 12Z" fill="#041734"/>
<path d="M480.588 0L496.177 12H465L480.588 0Z" fill="#041734"/>
<path d="M496.088 12L511.677 24H480.5L496.088 12Z" fill="#041734"/>
<path d="M480.588 12L488.383 18H472.794L480.588 12Z" fill="#041734"/>
<path d="M511.588 0L527.177 12H496L511.588 0Z" fill="#041734"/>
<path d="M527.088 12L542.677 24H511.5L527.088 12Z" fill="#041734"/>
<path d="M511.588 12L519.383 18H503.794L511.588 12Z" fill="#041734"/>
<path d="M542.588 0L558.177 12H527L542.588 0Z" fill="#041734"/>
<path d="M558.088 12L573.677 24H542.5L558.088 12Z" fill="#041734"/>
<path d="M542.588 12L550.383 18H534.794L542.588 12Z" fill="#041734"/>
<path d="M573.588 0L589.177 12H558L573.588 0Z" fill="#041734"/>
<path d="M589.088 12L604.677 24H573.5L589.088 12Z" fill="#041734"/>
<path d="M573.588 12L581.383 18H565.794L573.588 12Z" fill="#041734"/>
<path d="M604.588 0L620.177 12H589L604.588 0Z" fill="#041734"/>
<path d="M620.088 12L635.677 24H604.5L620.088 12Z" fill="#041734"/>
<path d="M604.588 12L612.383 18H596.794L604.588 12Z" fill="#041734"/>
<path d="M1100.59 0L1116.18 12H1085L1100.59 0Z" fill="#041734"/>
<path d="M1116.09 12L1131.68 24H1100.5L1116.09 12Z" fill="#041734"/>
<path d="M1100.59 12L1108.38 18H1092.79L1100.59 12Z" fill="#041734"/>
<path d="M1131.59 0L1147.18 12H1116L1131.59 0Z" fill="#041734"/>
<path d="M1147.09 12L1162.68 24H1131.5L1147.09 12Z" fill="#041734"/>
<path d="M1131.59 12L1139.38 18H1123.79L1131.59 12Z" fill="#041734"/>
<path d="M1162.59 0L1178.18 12H1147L1162.59 0Z" fill="#041734"/>
<path d="M1178.09 12L1193.68 24H1162.5L1178.09 12Z" fill="#041734"/>
<path d="M1162.59 12L1170.38 18H1154.79L1162.59 12Z" fill="#041734"/>
<path d="M1193.59 0L1209.18 12H1178L1193.59 0Z" fill="#041734"/>
<path d="M1209.09 12L1224.68 24H1193.5L1209.09 12Z" fill="#041734"/>
<path d="M1193.59 12L1201.38 18H1185.79L1193.59 12Z" fill="#041734"/>
<path d="M1224.59 0L1240.18 12H1209L1224.59 0Z" fill="#041734"/>
<path d="M1240.09 12L1255.68 24H1224.5L1240.09 12Z" fill="#041734"/>
<path d="M1224.59 12L1232.38 18H1216.79L1224.59 12Z" fill="#041734"/>
<path d="M1255.59 0L1271.18 12H1240L1255.59 0Z" fill="#041734"/>
<path d="M1271.09 12L1286.68 24H1255.5L1271.09 12Z" fill="#041734"/>
<path d="M1255.59 12L1263.38 18H1247.79L1255.59 12Z" fill="#041734"/>
<path d="M1286.59 0L1302.18 12H1271L1286.59 0Z" fill="#041734"/>
<path d="M1302.09 12L1317.68 24H1286.5L1302.09 12Z" fill="#041734"/>
<path d="M1286.59 12L1294.38 18H1278.79L1286.59 12Z" fill="#041734"/>
<path d="M1317.59 0L1333.18 12H1302L1317.59 0Z" fill="#041734"/>
<path d="M1333.09 12L1348.68 24H1317.5L1333.09 12Z" fill="#041734"/>
<path d="M1317.59 12L1325.38 18H1309.79L1317.59 12Z" fill="#041734"/>
<path d="M1348.59 0L1364.18 12H1333L1348.59 0Z" fill="#041734"/>
<path d="M1364.09 12L1379.68 24H1348.5L1364.09 12Z" fill="#041734"/>
<path d="M1348.59 12L1356.38 18H1340.79L1348.59 12Z" fill="#041734"/>
<path d="M1379.59 0L1395.18 12H1364L1379.59 0Z" fill="#041734"/>
<path d="M1395.09 12L1410.68 24H1379.5L1395.09 12Z" fill="#041734"/>
<path d="M1379.59 12L1387.38 18H1371.79L1379.59 12Z" fill="#041734"/>
<path d="M1410.59 0L1426.18 12H1395L1410.59 0Z" fill="#041734"/>
<path d="M1426.09 12L1441.68 24H1410.5L1426.09 12Z" fill="#041734"/>
<path d="M1410.59 12L1418.38 18H1402.79L1410.59 12Z" fill="#041734"/>
<path d="M1441.59 0L1457.18 12H1426L1441.59 0Z" fill="#041734"/>
<path d="M1457.09 12L1472.68 24H1441.5L1457.09 12Z" fill="#041734"/>
<path d="M1441.59 12L1449.38 18H1433.79L1441.59 12Z" fill="#041734"/>
<path d="M1472.59 0L1488.18 12H1457L1472.59 0Z" fill="#041734"/>
<path d="M1488.09 12L1503.68 24H1472.5L1488.09 12Z" fill="#041734"/>
<path d="M1472.59 12L1480.38 18H1464.79L1472.59 12Z" fill="#041734"/>
<path d="M1503.59 0L1519.18 12H1488L1503.59 0Z" fill="#041734"/>
<path d="M1519.09 12L1534.68 24H1503.5L1519.09 12Z" fill="#041734"/>
<path d="M1503.59 12L1511.38 18H1495.79L1503.59 12Z" fill="#041734"/>
<path d="M1534.59 0L1550.18 12H1519L1534.59 0Z" fill="#041734"/>
<path d="M1550.09 12L1565.68 24H1534.5L1550.09 12Z" fill="#041734"/>
<path d="M1534.59 12L1542.38 18H1526.79L1534.59 12Z" fill="#041734"/>
<path d="M1565.59 0L1581.18 12H1550L1565.59 0Z" fill="#041734"/>
<path d="M1581.09 12V24H1565.5L1581.09 12Z" fill="#041734"/>
<path d="M1565.59 12L1573.38 18H1557.79L1565.59 12Z" fill="#041734"/>
<path d="M325.588 0L341.177 12H310L325.588 0Z" fill="#041734"/>
<path d="M341.088 12L356.677 24H325.5L341.088 12Z" fill="#041734"/>
<path d="M325.588 12L333.383 18H317.794L325.588 12Z" fill="#041734"/>
<path d="M356.588 0L372.177 12H341L356.588 0Z" fill="#041734"/>
<path d="M372.088 12L387.677 24H356.5L372.088 12Z" fill="#041734"/>
<path d="M356.588 12L364.383 18H348.794L356.588 12Z" fill="#041734"/>
<path d="M387.588 0L403.177 12H372L387.588 0Z" fill="#041734"/>
<path d="M403.088 12L418.677 24H387.5L403.088 12Z" fill="#041734"/>
<path d="M387.588 12L395.383 18H379.794L387.588 12Z" fill="#041734"/>
<path d="M418.588 0L434.177 12H403L418.588 0Z" fill="#041734"/>
<path d="M434.088 12L449.677 24H418.5L434.088 12Z" fill="#041734"/>
<path d="M418.588 12L426.383 18H410.794L418.588 12Z" fill="#041734"/>
<path d="M449.588 0L465.177 12H434L449.588 0Z" fill="#041734"/>
<path d="M465.088 12L480.677 24H449.5L465.088 12Z" fill="#041734"/>
<path d="M449.588 12L457.383 18H441.794L449.588 12Z" fill="#041734"/>
<path d="M170.588 0L186.177 12H155L170.588 0Z" fill="#041734"/>
<path d="M186.088 12L201.677 24H170.5L186.088 12Z" fill="#041734"/>
<path d="M170.588 12L178.383 18H162.794L170.588 12Z" fill="#041734"/>
<path d="M201.588 0L217.177 12H186L201.588 0Z" fill="#041734"/>
<path d="M217.088 12L232.677 24H201.5L217.088 12Z" fill="#041734"/>
<path d="M201.588 12L209.383 18H193.794L201.588 12Z" fill="#041734"/>
<path d="M232.588 0L248.177 12H217L232.588 0Z" fill="#041734"/>
<path d="M248.088 12L263.677 24H232.5L248.088 12Z" fill="#041734"/>
<path d="M232.588 12L240.383 18H224.794L232.588 12Z" fill="#041734"/>
<path d="M263.588 0L279.177 12H248L263.588 0Z" fill="#041734"/>
<path d="M279.088 12L294.677 24H263.5L279.088 12Z" fill="#041734"/>
<path d="M263.588 12L271.383 18H255.794L263.588 12Z" fill="#041734"/>
<path d="M294.588 0L310.177 12H279L294.588 0Z" fill="#041734"/>
<path d="M310.088 12L325.677 24H294.5L310.088 12Z" fill="#041734"/>
<path d="M294.588 12L302.383 18H286.794L294.588 12Z" fill="#041734"/>
<path d="M2526.59 0L2542.18 12H2511L2526.59 0Z" fill="#041734"/>
<path d="M2542.09 12L2557.68 24H2526.5L2542.09 12Z" fill="#041734"/>
<path d="M2526.59 12L2534.38 18H2518.79L2526.59 12Z" fill="#041734"/>
<path d="M2557.59 0L2573.18 12H2542L2557.59 0Z" fill="#041734"/>
<path d="M2573.09 12L2588.68 24H2557.5L2573.09 12Z" fill="#041734"/>
<path d="M2557.59 12L2565.38 18H2549.79L2557.59 12Z" fill="#041734"/>
<path d="M2588.59 0L2604.18 12H2573L2588.59 0Z" fill="#041734"/>
<path d="M2604.09 12L2619.68 24H2588.5L2604.09 12Z" fill="#041734"/>
<path d="M2588.59 12L2596.38 18H2580.79L2588.59 12Z" fill="#041734"/>
<path d="M2619.59 0L2635.18 12H2604L2619.59 0Z" fill="#041734"/>
<path d="M2635.09 12L2650.68 24H2619.5L2635.09 12Z" fill="#041734"/>
<path d="M2619.59 12L2627.38 18H2611.79L2619.59 12Z" fill="#041734"/>
<path d="M2650.59 0L2666.18 12H2635L2650.59 0Z" fill="#041734"/>
<path d="M2666.09 12L2681.68 24H2650.5L2666.09 12Z" fill="#041734"/>
<path d="M2649.59 12L2657.38 18H2641.79L2649.59 12Z" fill="#041734"/>
<path d="M1596.59 0L1612.18 12H1581L1596.59 0Z" fill="#041734"/>
<path d="M1596.59 0L1612.18 12H1581L1596.59 0Z" fill="#041734"/>
<path d="M1612.09 12L1627.68 24H1596.5L1612.09 12Z" fill="#041734"/>
<path d="M1581.09 12L1596.68 24H1581L1581.09 12Z" fill="#041734"/>
<path d="M1627.59 0L1643.18 12H1612L1627.59 0Z" fill="#041734"/>
<path d="M1643.09 12L1658.68 24H1627.5L1643.09 12Z" fill="#041734"/>
<path d="M1627.59 12L1635.38 18H1619.79L1627.59 12Z" fill="#041734"/>
<path d="M1596.59 12L1604.38 18H1588.79L1596.59 12Z" fill="#041734"/>
<path d="M1658.59 0L1674.18 12H1643L1658.59 0Z" fill="#041734"/>
<path d="M1674.09 12L1689.68 24H1658.5L1674.09 12Z" fill="#041734"/>
<path d="M1658.59 12L1666.38 18H1650.79L1658.59 12Z" fill="#041734"/>
<path d="M1689.59 0L1705.18 12H1674L1689.59 0Z" fill="#041734"/>
<path d="M1705.09 12L1720.68 24H1689.5L1705.09 12Z" fill="#041734"/>
<path d="M1689.59 12L1697.38 18H1681.79L1689.59 12Z" fill="#041734"/>
<path d="M1720.59 0L1736.18 12H1705L1720.59 0Z" fill="#041734"/>
<path d="M1736.09 12L1751.68 24H1720.5L1736.09 12Z" fill="#041734"/>
<path d="M1720.59 12L1728.38 18H1712.79L1720.59 12Z" fill="#041734"/>
<path d="M2371.59 0L2387.18 12H2356L2371.59 0Z" fill="#041734"/>
<path d="M2387.09 12L2402.68 24H2371.5L2387.09 12Z" fill="#041734"/>
<path d="M2371.59 12L2379.38 18H2363.79L2371.59 12Z" fill="#041734"/>
<path d="M2402.59 0L2418.18 12H2387L2402.59 0Z" fill="#041734"/>
<path d="M2418.09 12L2433.68 24H2402.5L2418.09 12Z" fill="#041734"/>
<path d="M2402.59 12L2410.38 18H2394.79L2402.59 12Z" fill="#041734"/>
<path d="M2433.59 0L2449.18 12H2418L2433.59 0Z" fill="#041734"/>
<path d="M2449.09 12L2464.68 24H2433.5L2449.09 12Z" fill="#041734"/>
<path d="M2433.59 12L2441.38 18H2425.79L2433.59 12Z" fill="#041734"/>
<path d="M2464.59 0L2480.18 12H2449L2464.59 0Z" fill="#041734"/>
<path d="M2480.09 12L2495.68 24H2464.5L2480.09 12Z" fill="#041734"/>
<path d="M2464.59 12L2472.38 18H2456.79L2464.59 12Z" fill="#041734"/>
<path d="M2495.59 0L2511.18 12H2480L2495.59 0Z" fill="#041734"/>
<path d="M2511.09 12L2526.68 24H2495.5L2511.09 12Z" fill="#041734"/>
<path d="M2495.59 12L2503.38 18H2487.79L2495.59 12Z" fill="#041734"/>
<path d="M2216.59 0L2232.18 12H2201L2216.59 0Z" fill="#041734"/>
<path d="M2232.09 12L2247.68 24H2216.5L2232.09 12Z" fill="#041734"/>
<path d="M2216.59 12L2224.38 18H2208.79L2216.59 12Z" fill="#041734"/>
<path d="M2247.59 0L2263.18 12H2232L2247.59 0Z" fill="#041734"/>
<path d="M2263.09 12L2278.68 24H2247.5L2263.09 12Z" fill="#041734"/>
<path d="M2247.59 12L2255.38 18H2239.79L2247.59 12Z" fill="#041734"/>
<path d="M2278.59 0L2294.18 12H2263L2278.59 0Z" fill="#041734"/>
<path d="M2294.09 12L2309.68 24H2278.5L2294.09 12Z" fill="#041734"/>
<path d="M2278.59 12L2286.38 18H2270.79L2278.59 12Z" fill="#041734"/>
<path d="M2309.59 0L2325.18 12H2294L2309.59 0Z" fill="#041734"/>
<path d="M2325.09 12L2340.68 24H2309.5L2325.09 12Z" fill="#041734"/>
<path d="M2309.59 12L2317.38 18H2301.79L2309.59 12Z" fill="#041734"/>
<path d="M2340.59 0L2356.18 12H2325L2340.59 0Z" fill="#041734"/>
<path d="M2356.09 12L2371.68 24H2340.5L2356.09 12Z" fill="#041734"/>
<path d="M2340.59 12L2348.38 18H2332.79L2340.59 12Z" fill="#041734"/>
<path d="M2061.59 0L2077.18 12H2046L2061.59 0Z" fill="#041734"/>
<path d="M2077.09 12L2092.68 24H2061.5L2077.09 12Z" fill="#041734"/>
<path d="M2061.59 12L2069.38 18H2053.79L2061.59 12Z" fill="#041734"/>
<path d="M2092.59 0L2108.18 12H2077L2092.59 0Z" fill="#041734"/>
<path d="M2108.09 12L2123.68 24H2092.5L2108.09 12Z" fill="#041734"/>
<path d="M2092.59 12L2100.38 18H2084.79L2092.59 12Z" fill="#041734"/>
<path d="M2123.59 0L2139.18 12H2108L2123.59 0Z" fill="#041734"/>
<path d="M2139.09 12L2154.68 24H2123.5L2139.09 12Z" fill="#041734"/>
<path d="M2123.59 12L2131.38 18H2115.79L2123.59 12Z" fill="#041734"/>
<path d="M2154.59 0L2170.18 12H2139L2154.59 0Z" fill="#041734"/>
<path d="M2170.09 12L2185.68 24H2154.5L2170.09 12Z" fill="#041734"/>
<path d="M2154.59 12L2162.38 18H2146.79L2154.59 12Z" fill="#041734"/>
<path d="M2185.59 0L2201.18 12H2170L2185.59 0Z" fill="#041734"/>
<path d="M2201.09 12L2216.68 24H2185.5L2201.09 12Z" fill="#041734"/>
<path d="M2185.59 12L2193.38 18H2177.79L2185.59 12Z" fill="#041734"/>
<path d="M2681.59 0L2697.18 12H2666L2681.59 0Z" fill="#041734"/>
<path d="M2697.09 12L2712.68 24H2681.5L2697.09 12Z" fill="#041734"/>
<path d="M2681.59 12L2689.38 18H2673.79L2681.59 12Z" fill="#041734"/>
<path d="M2712.59 0L2728.18 12H2697L2712.59 0Z" fill="#041734"/>
<path d="M2728.09 12L2743.68 24H2712.5L2728.09 12Z" fill="#041734"/>
<path d="M2712.59 12L2720.38 18H2704.79L2712.59 12Z" fill="#041734"/>
<path d="M2743.59 0L2759.18 12H2728L2743.59 0Z" fill="#041734"/>
<path d="M2759.09 12L2774.68 24H2743.5L2759.09 12Z" fill="#041734"/>
<path d="M2743.59 12L2751.38 18H2735.79L2743.59 12Z" fill="#041734"/>
<path d="M2774.59 0L2790.18 12H2759L2774.59 0Z" fill="#041734"/>
<path d="M2790.09 12L2805.68 24H2774.5L2790.09 12Z" fill="#041734"/>
<path d="M2774.59 12L2782.38 18H2766.79L2774.59 12Z" fill="#041734"/>
<path d="M2805.59 0L2821.18 12H2790L2805.59 0Z" fill="#041734"/>
<path d="M2821.09 12L2836.68 24H2805.5L2821.09 12Z" fill="#041734"/>
<path d="M2805.59 12L2813.38 18H2797.79L2805.59 12Z" fill="#041734"/>
<path d="M2836.59 0L2852.18 12H2821L2836.59 0Z" fill="#041734"/>
<path d="M2852.09 12L2867.68 24H2836.5L2852.09 12Z" fill="#041734"/>
<path d="M2836.59 12L2844.38 18H2828.79L2836.59 12Z" fill="#041734"/>
<path d="M2867.59 0L2883.18 12H2852L2867.59 0Z" fill="#041734"/>
<path d="M2883.09 12L2898.68 24H2867.5L2883.09 12Z" fill="#041734"/>
<path d="M2867.59 12L2875.38 18H2859.79L2867.59 12Z" fill="#041734"/>
<path d="M2898.59 0L2914.18 12H2883L2898.59 0Z" fill="#041734"/>
<path d="M2914.09 12L2929.68 24H2898.5L2914.09 12Z" fill="#041734"/>
<path d="M2898.59 12L2906.38 18H2890.79L2898.59 12Z" fill="#041734"/>
<path d="M2929.59 0L2945.18 12H2914L2929.59 0Z" fill="#041734"/>
<path d="M2945.09 12L2960.68 24H2929.5L2945.09 12Z" fill="#041734"/>
<path d="M2929.59 12L2937.38 18H2921.79L2929.59 12Z" fill="#041734"/>
<path d="M2960.59 0L2976.18 12H2945L2960.59 0Z" fill="#041734"/>
<path d="M2976.09 12L2991.68 24H2960.5L2976.09 12Z" fill="#041734"/>
<path d="M2960.59 12L2968.38 18H2952.79L2960.59 12Z" fill="#041734"/>
<path d="M2991.59 0L3007.18 12H2976L2991.59 0Z" fill="#041734"/>
<path d="M3007.09 12L3022.68 24H2991.5L3007.09 12Z" fill="#041734"/>
<path d="M2991.59 12L2999.38 18H2983.79L2991.59 12Z" fill="#041734"/>
<path d="M3022.59 0L3038.18 12H3007L3022.59 0Z" fill="#041734"/>
<path d="M3038.09 12L3053.68 24H3022.5L3038.09 12Z" fill="#041734"/>
<path d="M3022.59 12L3030.38 18H3014.79L3022.59 12Z" fill="#041734"/>
<path d="M3053.59 0L3069.18 12H3038L3053.59 0Z" fill="#041734"/>
<path d="M3069.09 12L3084.68 24H3053.5L3069.09 12Z" fill="#041734"/>
<path d="M3053.59 12L3061.38 18H3045.79L3053.59 12Z" fill="#041734"/>
<path d="M3084.59 0L3100.18 12H3069L3084.59 0Z" fill="#041734"/>
<path d="M3100.09 12L3115.68 24H3084.5L3100.09 12Z" fill="#041734"/>
<path d="M3084.59 12L3092.38 18H3076.79L3084.59 12Z" fill="#041734"/>
<path d="M3115.59 0L3131.18 12H3100L3115.59 0Z" fill="#041734"/>
<path d="M3131.09 12L3146.68 24H3115.5L3131.09 12Z" fill="#041734"/>
<path d="M3115.59 12L3123.38 18H3107.79L3115.59 12Z" fill="#041734"/>
<path d="M3146.59 0L3162.18 12H3131L3146.59 0Z" fill="#041734"/>
<path d="M3162.09 12V24H3146.5L3162.09 12Z" fill="#041734"/>
<path d="M3146.59 12L3154.38 18H3138.79L3146.59 12Z" fill="#041734"/>
<path d="M1906.59 0L1922.18 12H1891L1906.59 0Z" fill="#041734"/>
<path d="M1922.09 12L1937.68 24H1906.5L1922.09 12Z" fill="#041734"/>
<path d="M1906.59 12L1914.38 18H1898.79L1906.59 12Z" fill="#041734"/>
<path d="M1937.59 0L1953.18 12H1922L1937.59 0Z" fill="#041734"/>
<path d="M1953.09 12L1968.68 24H1937.5L1953.09 12Z" fill="#041734"/>
<path d="M1937.59 12L1945.38 18H1929.79L1937.59 12Z" fill="#041734"/>
<path d="M1968.59 0L1984.18 12H1953L1968.59 0Z" fill="#041734"/>
<path d="M1984.09 12L1999.68 24H1968.5L1984.09 12Z" fill="#041734"/>
<path d="M1968.59 12L1976.38 18H1960.79L1968.59 12Z" fill="#041734"/>
<path d="M1999.59 0L2015.18 12H1984L1999.59 0Z" fill="#041734"/>
<path d="M2015.09 12L2030.68 24H1999.5L2015.09 12Z" fill="#041734"/>
<path d="M1999.59 12L2007.38 18H1991.79L1999.59 12Z" fill="#041734"/>
<path d="M2030.59 0L2046.18 12H2015L2030.59 0Z" fill="#041734"/>
<path d="M2046.09 12L2061.68 24H2030.5L2046.09 12Z" fill="#041734"/>
<path d="M2030.59 12L2038.38 18H2022.79L2030.59 12Z" fill="#041734"/>
<path d="M1751.59 0L1767.18 12H1736L1751.59 0Z" fill="#041734"/>
<path d="M1767.09 12L1782.68 24H1751.5L1767.09 12Z" fill="#041734"/>
<path d="M1751.59 12L1759.38 18H1743.79L1751.59 12Z" fill="#041734"/>
<path d="M1782.59 0L1798.18 12H1767L1782.59 0Z" fill="#041734"/>
<path d="M1798.09 12L1813.68 24H1782.5L1798.09 12Z" fill="#041734"/>
<path d="M1782.59 12L1790.38 18H1774.79L1782.59 12Z" fill="#041734"/>
<path d="M1813.59 0L1829.18 12H1798L1813.59 0Z" fill="#041734"/>
<path d="M1829.09 12L1844.68 24H1813.5L1829.09 12Z" fill="#041734"/>
<path d="M1813.59 12L1821.38 18H1805.79L1813.59 12Z" fill="#041734"/>
<path d="M1844.59 0L1860.18 12H1829L1844.59 0Z" fill="#041734"/>
<path d="M1860.09 12L1875.68 24H1844.5L1860.09 12Z" fill="#041734"/>
<path d="M1844.59 12L1852.38 18H1836.79L1844.59 12Z" fill="#041734"/>
<path d="M1875.59 0L1891.18 12H1860L1875.59 0Z" fill="#041734"/>
<path d="M1891.09 12L1906.68 24H1875.5L1891.09 12Z" fill="#041734"/>
<path d="M1875.59 12L1883.38 18H1867.79L1875.59 12Z" fill="#041734"/>
</svg>
