<svg width="4744" height="24" viewBox="0 0 4744 24" fill="none" xmlns="http://www.w3.org/2000/svg">
<rect x="0.409912" y="12" width="4743.18" height="12" fill="#13294B"/>
<path d="M2527.09 0L2542.68 12H2511.5L2527.09 0Z" fill="#FDFFF5"/>
<path d="M2542.59 12L2558.18 24H2527L2542.59 12Z" fill="#FDFFF5"/>
<path d="M2527.09 12L2534.88 18H2519.29L2527.09 12Z" fill="#FDFFF5"/>
<path d="M2558.09 0L2573.68 12H2542.5L2558.09 0Z" fill="#FDFFF5"/>
<path d="M2573.59 12L2589.18 24H2558L2573.59 12Z" fill="#FDFFF5"/>
<path d="M2558.09 12L2565.88 18H2550.29L2558.09 12Z" fill="#FDFFF5"/>
<path d="M2589.09 0L2604.68 12H2573.5L2589.09 0Z" fill="#FDFFF5"/>
<path d="M2604.59 12L2620.18 24H2589L2604.59 12Z" fill="#FDFFF5"/>
<path d="M2589.09 12L2596.88 18H2581.29L2589.09 12Z" fill="#FDFFF5"/>
<path d="M2620.09 0L2635.68 12H2604.5L2620.09 0Z" fill="#FDFFF5"/>
<path d="M2635.59 12L2651.18 24H2620L2635.59 12Z" fill="#FDFFF5"/>
<path d="M2620.09 12L2627.88 18H2612.29L2620.09 12Z" fill="#FDFFF5"/>
<path d="M2651.09 0L2666.68 12H2635.5L2651.09 0Z" fill="#FDFFF5"/>
<path d="M2666.59 12L2682.18 24H2651L2666.59 12Z" fill="#FDFFF5"/>
<path d="M2650.09 12L2657.88 18H2642.29L2650.09 12Z" fill="#FDFFF5"/>
<path d="M1597.09 0L1612.68 12H1581.5L1597.09 0Z" fill="#FDFFF5"/>
<path d="M1597.09 0L1612.68 12H1581.5L1597.09 0Z" fill="#FDFFF5"/>
<path d="M1612.59 12L1628.18 24H1597L1612.59 12Z" fill="#FDFFF5"/>
<path d="M1581.5 12L1597.18 24H1581.5V12Z" fill="#FDFFF5"/>
<path d="M1628.09 0L1643.68 12H1612.5L1628.09 0Z" fill="#FDFFF5"/>
<path d="M1643.59 12L1659.18 24H1628L1643.59 12Z" fill="#FDFFF5"/>
<path d="M1628.09 12L1635.88 18H1620.29L1628.09 12Z" fill="#FDFFF5"/>
<path d="M1597.09 12L1604.88 18H1589.29L1597.09 12Z" fill="#FDFFF5"/>
<path d="M1659.09 0L1674.68 12H1643.5L1659.09 0Z" fill="#FDFFF5"/>
<path d="M1674.59 12L1690.18 24H1659L1674.59 12Z" fill="#FDFFF5"/>
<path d="M1659.09 12L1666.88 18H1651.29L1659.09 12Z" fill="#FDFFF5"/>
<path d="M1690.09 0L1705.68 12H1674.5L1690.09 0Z" fill="#FDFFF5"/>
<path d="M1705.59 12L1721.18 24H1690L1705.59 12Z" fill="#FDFFF5"/>
<path d="M1690.09 12L1697.88 18H1682.29L1690.09 12Z" fill="#FDFFF5"/>
<path d="M1721.09 0L1736.68 12H1705.5L1721.09 0Z" fill="#FDFFF5"/>
<path d="M1736.59 12L1752.18 24H1721L1736.59 12Z" fill="#FDFFF5"/>
<path d="M1721.09 12L1728.88 18H1713.29L1721.09 12Z" fill="#FDFFF5"/>
<path d="M2372.09 0L2387.68 12H2356.5L2372.09 0Z" fill="#FDFFF5"/>
<path d="M2387.59 12L2403.18 24H2372L2387.59 12Z" fill="#FDFFF5"/>
<path d="M2372.09 12L2379.88 18H2364.29L2372.09 12Z" fill="#FDFFF5"/>
<path d="M2403.09 0L2418.68 12H2387.5L2403.09 0Z" fill="#FDFFF5"/>
<path d="M2418.59 12L2434.18 24H2403L2418.59 12Z" fill="#FDFFF5"/>
<path d="M2403.09 12L2410.88 18H2395.29L2403.09 12Z" fill="#FDFFF5"/>
<path d="M2434.09 0L2449.68 12H2418.5L2434.09 0Z" fill="#FDFFF5"/>
<path d="M2449.59 12L2465.18 24H2434L2449.59 12Z" fill="#FDFFF5"/>
<path d="M2434.09 12L2441.88 18H2426.29L2434.09 12Z" fill="#FDFFF5"/>
<path d="M2465.09 0L2480.68 12H2449.5L2465.09 0Z" fill="#FDFFF5"/>
<path d="M2480.59 12L2496.18 24H2465L2480.59 12Z" fill="#FDFFF5"/>
<path d="M2465.09 12L2472.88 18H2457.29L2465.09 12Z" fill="#FDFFF5"/>
<path d="M2496.09 0L2511.68 12H2480.5L2496.09 0Z" fill="#FDFFF5"/>
<path d="M2511.59 12L2527.18 24H2496L2511.59 12Z" fill="#FDFFF5"/>
<path d="M2496.09 12L2503.88 18H2488.29L2496.09 12Z" fill="#FDFFF5"/>
<path d="M2217.09 0L2232.68 12H2201.5L2217.09 0Z" fill="#FDFFF5"/>
<path d="M2232.59 12L2248.18 24H2217L2232.59 12Z" fill="#FDFFF5"/>
<path d="M2217.09 12L2224.88 18H2209.29L2217.09 12Z" fill="#FDFFF5"/>
<path d="M2248.09 0L2263.68 12H2232.5L2248.09 0Z" fill="#FDFFF5"/>
<path d="M2263.59 12L2279.18 24H2248L2263.59 12Z" fill="#FDFFF5"/>
<path d="M2248.09 12L2255.88 18H2240.29L2248.09 12Z" fill="#FDFFF5"/>
<path d="M2279.09 0L2294.68 12H2263.5L2279.09 0Z" fill="#FDFFF5"/>
<path d="M2294.59 12L2310.18 24H2279L2294.59 12Z" fill="#FDFFF5"/>
<path d="M2279.09 12L2286.88 18H2271.29L2279.09 12Z" fill="#FDFFF5"/>
<path d="M2310.09 0L2325.68 12H2294.5L2310.09 0Z" fill="#FDFFF5"/>
<path d="M2325.59 12L2341.18 24H2310L2325.59 12Z" fill="#FDFFF5"/>
<path d="M2310.09 12L2317.88 18H2302.29L2310.09 12Z" fill="#FDFFF5"/>
<path d="M2341.09 0L2356.68 12H2325.5L2341.09 0Z" fill="#FDFFF5"/>
<path d="M2356.59 12L2372.18 24H2341L2356.59 12Z" fill="#FDFFF5"/>
<path d="M2341.09 12L2348.88 18H2333.29L2341.09 12Z" fill="#FDFFF5"/>
<path d="M2062.09 0L2077.68 12H2046.5L2062.09 0Z" fill="#FDFFF5"/>
<path d="M2077.59 12L2093.18 24H2062L2077.59 12Z" fill="#FDFFF5"/>
<path d="M2062.09 12L2069.88 18H2054.29L2062.09 12Z" fill="#FDFFF5"/>
<path d="M2093.09 0L2108.68 12H2077.5L2093.09 0Z" fill="#FDFFF5"/>
<path d="M2108.59 12L2124.18 24H2093L2108.59 12Z" fill="#FDFFF5"/>
<path d="M2093.09 12L2100.88 18H2085.29L2093.09 12Z" fill="#FDFFF5"/>
<path d="M2124.09 0L2139.68 12H2108.5L2124.09 0Z" fill="#FDFFF5"/>
<path d="M2139.59 12L2155.18 24H2124L2139.59 12Z" fill="#FDFFF5"/>
<path d="M2124.09 12L2131.88 18H2116.29L2124.09 12Z" fill="#FDFFF5"/>
<path d="M2155.09 0L2170.68 12H2139.5L2155.09 0Z" fill="#FDFFF5"/>
<path d="M2170.59 12L2186.18 24H2155L2170.59 12Z" fill="#FDFFF5"/>
<path d="M2155.09 12L2162.88 18H2147.29L2155.09 12Z" fill="#FDFFF5"/>
<path d="M2186.09 0L2201.68 12H2170.5L2186.09 0Z" fill="#FDFFF5"/>
<path d="M2201.59 12L2217.18 24H2186L2201.59 12Z" fill="#FDFFF5"/>
<path d="M2186.09 12L2193.88 18H2178.29L2186.09 12Z" fill="#FDFFF5"/>
<path d="M2682.09 0L2697.68 12H2666.5L2682.09 0Z" fill="#FDFFF5"/>
<path d="M2697.59 12L2713.18 24H2682L2697.59 12Z" fill="#FDFFF5"/>
<path d="M2682.09 12L2689.88 18H2674.29L2682.09 12Z" fill="#FDFFF5"/>
<path d="M2713.09 0L2728.68 12H2697.5L2713.09 0Z" fill="#FDFFF5"/>
<path d="M2728.59 12L2744.18 24H2713L2728.59 12Z" fill="#FDFFF5"/>
<path d="M2713.09 12L2720.88 18H2705.29L2713.09 12Z" fill="#FDFFF5"/>
<path d="M2744.09 0L2759.68 12H2728.5L2744.09 0Z" fill="#FDFFF5"/>
<path d="M2759.59 12L2775.18 24H2744L2759.59 12Z" fill="#FDFFF5"/>
<path d="M2744.09 12L2751.88 18H2736.29L2744.09 12Z" fill="#FDFFF5"/>
<path d="M2775.09 0L2790.68 12H2759.5L2775.09 0Z" fill="#FDFFF5"/>
<path d="M2790.59 12L2806.18 24H2775L2790.59 12Z" fill="#FDFFF5"/>
<path d="M2775.09 12L2782.88 18H2767.29L2775.09 12Z" fill="#FDFFF5"/>
<path d="M2806.09 0L2821.68 12H2790.5L2806.09 0Z" fill="#FDFFF5"/>
<path d="M2821.59 12L2837.18 24H2806L2821.59 12Z" fill="#FDFFF5"/>
<path d="M2806.09 12L2813.88 18H2798.29L2806.09 12Z" fill="#FDFFF5"/>
<path d="M2837.09 0L2852.68 12H2821.5L2837.09 0Z" fill="#FDFFF5"/>
<path d="M2852.59 12L2868.18 24H2837L2852.59 12Z" fill="#FDFFF5"/>
<path d="M2837.09 12L2844.88 18H2829.29L2837.09 12Z" fill="#FDFFF5"/>
<path d="M2868.09 0L2883.68 12H2852.5L2868.09 0Z" fill="#FDFFF5"/>
<path d="M2883.59 12L2899.18 24H2868L2883.59 12Z" fill="#FDFFF5"/>
<path d="M2868.09 12L2875.88 18H2860.29L2868.09 12Z" fill="#FDFFF5"/>
<path d="M2899.09 0L2914.68 12H2883.5L2899.09 0Z" fill="#FDFFF5"/>
<path d="M2914.59 12L2930.18 24H2899L2914.59 12Z" fill="#FDFFF5"/>
<path d="M2899.09 12L2906.88 18H2891.29L2899.09 12Z" fill="#FDFFF5"/>
<path d="M2930.09 0L2945.68 12H2914.5L2930.09 0Z" fill="#FDFFF5"/>
<path d="M2945.59 12L2961.18 24H2930L2945.59 12Z" fill="#FDFFF5"/>
<path d="M2930.09 12L2937.88 18H2922.29L2930.09 12Z" fill="#FDFFF5"/>
<path d="M2961.09 0L2976.68 12H2945.5L2961.09 0Z" fill="#FDFFF5"/>
<path d="M2976.59 12L2992.18 24H2961L2976.59 12Z" fill="#FDFFF5"/>
<path d="M2961.09 12L2968.88 18H2953.29L2961.09 12Z" fill="#FDFFF5"/>
<path d="M2992.09 0L3007.68 12H2976.5L2992.09 0Z" fill="#FDFFF5"/>
<path d="M3007.59 12L3023.18 24H2992L3007.59 12Z" fill="#FDFFF5"/>
<path d="M2992.09 12L2999.88 18H2984.29L2992.09 12Z" fill="#FDFFF5"/>
<path d="M3023.09 0L3038.68 12H3007.5L3023.09 0Z" fill="#FDFFF5"/>
<path d="M3038.59 12L3054.18 24H3023L3038.59 12Z" fill="#FDFFF5"/>
<path d="M3023.09 12L3030.88 18H3015.29L3023.09 12Z" fill="#FDFFF5"/>
<path d="M3054.09 0L3069.68 12H3038.5L3054.09 0Z" fill="#FDFFF5"/>
<path d="M3069.59 12L3085.18 24H3054L3069.59 12Z" fill="#FDFFF5"/>
<path d="M3054.09 12L3061.88 18H3046.29L3054.09 12Z" fill="#FDFFF5"/>
<path d="M3085.09 0L3100.68 12H3069.5L3085.09 0Z" fill="#FDFFF5"/>
<path d="M3100.59 12L3116.18 24H3085L3100.59 12Z" fill="#FDFFF5"/>
<path d="M3085.09 12L3092.88 18H3077.29L3085.09 12Z" fill="#FDFFF5"/>
<path d="M3116.09 0L3131.68 12H3100.5L3116.09 0Z" fill="#FDFFF5"/>
<path d="M3131.59 12L3147.18 24H3116L3131.59 12Z" fill="#FDFFF5"/>
<path d="M3116.09 12L3123.88 18H3108.29L3116.09 12Z" fill="#FDFFF5"/>
<path d="M3147.09 0L3162.68 12H3131.5L3147.09 0Z" fill="#FDFFF5"/>
<path d="M3162.59 12V24H3147L3162.59 12Z" fill="#FDFFF5"/>
<path d="M3147.09 12L3154.88 18H3139.29L3147.09 12Z" fill="#FDFFF5"/>
<path d="M1907.09 0L1922.68 12H1891.5L1907.09 0Z" fill="#FDFFF5"/>
<path d="M1922.59 12L1938.18 24H1907L1922.59 12Z" fill="#FDFFF5"/>
<path d="M1907.09 12L1914.88 18H1899.29L1907.09 12Z" fill="#FDFFF5"/>
<path d="M1938.09 0L1953.68 12H1922.5L1938.09 0Z" fill="#FDFFF5"/>
<path d="M1953.59 12L1969.18 24H1938L1953.59 12Z" fill="#FDFFF5"/>
<path d="M1938.09 12L1945.88 18H1930.29L1938.09 12Z" fill="#FDFFF5"/>
<path d="M1969.09 0L1984.68 12H1953.5L1969.09 0Z" fill="#FDFFF5"/>
<path d="M1984.59 12L2000.18 24H1969L1984.59 12Z" fill="#FDFFF5"/>
<path d="M1969.09 12L1976.88 18H1961.29L1969.09 12Z" fill="#FDFFF5"/>
<path d="M2000.09 0L2015.68 12H1984.5L2000.09 0Z" fill="#FDFFF5"/>
<path d="M2015.59 12L2031.18 24H2000L2015.59 12Z" fill="#FDFFF5"/>
<path d="M2000.09 12L2007.88 18H1992.29L2000.09 12Z" fill="#FDFFF5"/>
<path d="M2031.09 0L2046.68 12H2015.5L2031.09 0Z" fill="#FDFFF5"/>
<path d="M2046.59 12L2062.18 24H2031L2046.59 12Z" fill="#FDFFF5"/>
<path d="M2031.09 12L2038.88 18H2023.29L2031.09 12Z" fill="#FDFFF5"/>
<path d="M1752.09 0L1767.68 12H1736.5L1752.09 0Z" fill="#FDFFF5"/>
<path d="M1767.59 12L1783.18 24H1752L1767.59 12Z" fill="#FDFFF5"/>
<path d="M1752.09 12L1759.88 18H1744.29L1752.09 12Z" fill="#FDFFF5"/>
<path d="M1783.09 0L1798.68 12H1767.5L1783.09 0Z" fill="#FDFFF5"/>
<path d="M1798.59 12L1814.18 24H1783L1798.59 12Z" fill="#FDFFF5"/>
<path d="M1783.09 12L1790.88 18H1775.29L1783.09 12Z" fill="#FDFFF5"/>
<path d="M1814.09 0L1829.68 12H1798.5L1814.09 0Z" fill="#FDFFF5"/>
<path d="M1829.59 12L1845.18 24H1814L1829.59 12Z" fill="#FDFFF5"/>
<path d="M1814.09 12L1821.88 18H1806.29L1814.09 12Z" fill="#FDFFF5"/>
<path d="M1845.09 0L1860.68 12H1829.5L1845.09 0Z" fill="#FDFFF5"/>
<path d="M1860.59 12L1876.18 24H1845L1860.59 12Z" fill="#FDFFF5"/>
<path d="M1845.09 12L1852.88 18H1837.29L1845.09 12Z" fill="#FDFFF5"/>
<path d="M1876.09 0L1891.68 12H1860.5L1876.09 0Z" fill="#FDFFF5"/>
<path d="M1891.59 12L1907.18 24H1876L1891.59 12Z" fill="#FDFFF5"/>
<path d="M1876.09 12L1883.88 18H1868.29L1876.09 12Z" fill="#FDFFF5"/>
<path d="M4108.09 0L4123.68 12H4092.5L4108.09 0Z" fill="#FDFFF5"/>
<path d="M4123.59 12L4139.18 24H4108L4123.59 12Z" fill="#FDFFF5"/>
<path d="M4108.09 12L4115.88 18H4100.29L4108.09 12Z" fill="#FDFFF5"/>
<path d="M4139.09 0L4154.68 12H4123.5L4139.09 0Z" fill="#FDFFF5"/>
<path d="M4154.59 12L4170.18 24H4139L4154.59 12Z" fill="#FDFFF5"/>
<path d="M4139.09 12L4146.88 18H4131.29L4139.09 12Z" fill="#FDFFF5"/>
<path d="M4170.09 0L4185.68 12H4154.5L4170.09 0Z" fill="#FDFFF5"/>
<path d="M4185.59 12L4201.18 24H4170L4185.59 12Z" fill="#FDFFF5"/>
<path d="M4170.09 12L4177.88 18H4162.29L4170.09 12Z" fill="#FDFFF5"/>
<path d="M4201.09 0L4216.68 12H4185.5L4201.09 0Z" fill="#FDFFF5"/>
<path d="M4216.59 12L4232.18 24H4201L4216.59 12Z" fill="#FDFFF5"/>
<path d="M4201.09 12L4208.88 18H4193.29L4201.09 12Z" fill="#FDFFF5"/>
<path d="M4232.09 0L4247.68 12H4216.5L4232.09 0Z" fill="#FDFFF5"/>
<path d="M4247.59 12L4263.18 24H4232L4247.59 12Z" fill="#FDFFF5"/>
<path d="M4231.09 12L4238.88 18H4223.29L4231.09 12Z" fill="#FDFFF5"/>
<path d="M3178.09 0L3193.68 12H3162.5L3178.09 0Z" fill="#FDFFF5"/>
<path d="M3178.09 0L3193.68 12H3162.5L3178.09 0Z" fill="#FDFFF5"/>
<path d="M3193.59 12L3209.18 24H3178L3193.59 12Z" fill="#FDFFF5"/>
<path d="M3162.5 12L3178.18 24H3162.5V12Z" fill="#FDFFF5"/>
<path d="M3209.09 0L3224.68 12H3193.5L3209.09 0Z" fill="#FDFFF5"/>
<path d="M3224.59 12L3240.18 24H3209L3224.59 12Z" fill="#FDFFF5"/>
<path d="M3209.09 12L3216.88 18H3201.29L3209.09 12Z" fill="#FDFFF5"/>
<path d="M3178.09 12L3185.88 18H3170.29L3178.09 12Z" fill="#FDFFF5"/>
<path d="M3240.09 0L3255.68 12H3224.5L3240.09 0Z" fill="#FDFFF5"/>
<path d="M3255.59 12L3271.18 24H3240L3255.59 12Z" fill="#FDFFF5"/>
<path d="M3240.09 12L3247.88 18H3232.29L3240.09 12Z" fill="#FDFFF5"/>
<path d="M3271.09 0L3286.68 12H3255.5L3271.09 0Z" fill="#FDFFF5"/>
<path d="M3286.59 12L3302.18 24H3271L3286.59 12Z" fill="#FDFFF5"/>
<path d="M3271.09 12L3278.88 18H3263.29L3271.09 12Z" fill="#FDFFF5"/>
<path d="M3302.09 0L3317.68 12H3286.5L3302.09 0Z" fill="#FDFFF5"/>
<path d="M3317.59 12L3333.18 24H3302L3317.59 12Z" fill="#FDFFF5"/>
<path d="M3302.09 12L3309.88 18H3294.29L3302.09 12Z" fill="#FDFFF5"/>
<path d="M3953.09 0L3968.68 12H3937.5L3953.09 0Z" fill="#FDFFF5"/>
<path d="M3968.59 12L3984.18 24H3953L3968.59 12Z" fill="#FDFFF5"/>
<path d="M3953.09 12L3960.88 18H3945.29L3953.09 12Z" fill="#FDFFF5"/>
<path d="M3984.09 0L3999.68 12H3968.5L3984.09 0Z" fill="#FDFFF5"/>
<path d="M3999.59 12L4015.18 24H3984L3999.59 12Z" fill="#FDFFF5"/>
<path d="M3984.09 12L3991.88 18H3976.29L3984.09 12Z" fill="#FDFFF5"/>
<path d="M4015.09 0L4030.68 12H3999.5L4015.09 0Z" fill="#FDFFF5"/>
<path d="M4030.59 12L4046.18 24H4015L4030.59 12Z" fill="#FDFFF5"/>
<path d="M4015.09 12L4022.88 18H4007.29L4015.09 12Z" fill="#FDFFF5"/>
<path d="M4046.09 0L4061.68 12H4030.5L4046.09 0Z" fill="#FDFFF5"/>
<path d="M4061.59 12L4077.18 24H4046L4061.59 12Z" fill="#FDFFF5"/>
<path d="M4046.09 12L4053.88 18H4038.29L4046.09 12Z" fill="#FDFFF5"/>
<path d="M4077.09 0L4092.68 12H4061.5L4077.09 0Z" fill="#FDFFF5"/>
<path d="M4092.59 12L4108.18 24H4077L4092.59 12Z" fill="#FDFFF5"/>
<path d="M4077.09 12L4084.88 18H4069.29L4077.09 12Z" fill="#FDFFF5"/>
<path d="M3798.09 0L3813.68 12H3782.5L3798.09 0Z" fill="#FDFFF5"/>
<path d="M3813.59 12L3829.18 24H3798L3813.59 12Z" fill="#FDFFF5"/>
<path d="M3798.09 12L3805.88 18H3790.29L3798.09 12Z" fill="#FDFFF5"/>
<path d="M3829.09 0L3844.68 12H3813.5L3829.09 0Z" fill="#FDFFF5"/>
<path d="M3844.59 12L3860.18 24H3829L3844.59 12Z" fill="#FDFFF5"/>
<path d="M3829.09 12L3836.88 18H3821.29L3829.09 12Z" fill="#FDFFF5"/>
<path d="M3860.09 0L3875.68 12H3844.5L3860.09 0Z" fill="#FDFFF5"/>
<path d="M3875.59 12L3891.18 24H3860L3875.59 12Z" fill="#FDFFF5"/>
<path d="M3860.09 12L3867.88 18H3852.29L3860.09 12Z" fill="#FDFFF5"/>
<path d="M3891.09 0L3906.68 12H3875.5L3891.09 0Z" fill="#FDFFF5"/>
<path d="M3906.59 12L3922.18 24H3891L3906.59 12Z" fill="#FDFFF5"/>
<path d="M3891.09 12L3898.88 18H3883.29L3891.09 12Z" fill="#FDFFF5"/>
<path d="M3922.09 0L3937.68 12H3906.5L3922.09 0Z" fill="#FDFFF5"/>
<path d="M3937.59 12L3953.18 24H3922L3937.59 12Z" fill="#FDFFF5"/>
<path d="M3922.09 12L3929.88 18H3914.29L3922.09 12Z" fill="#FDFFF5"/>
<path d="M3643.09 0L3658.68 12H3627.5L3643.09 0Z" fill="#FDFFF5"/>
<path d="M3658.59 12L3674.18 24H3643L3658.59 12Z" fill="#FDFFF5"/>
<path d="M3643.09 12L3650.88 18H3635.29L3643.09 12Z" fill="#FDFFF5"/>
<path d="M3674.09 0L3689.68 12H3658.5L3674.09 0Z" fill="#FDFFF5"/>
<path d="M3689.59 12L3705.18 24H3674L3689.59 12Z" fill="#FDFFF5"/>
<path d="M3674.09 12L3681.88 18H3666.29L3674.09 12Z" fill="#FDFFF5"/>
<path d="M3705.09 0L3720.68 12H3689.5L3705.09 0Z" fill="#FDFFF5"/>
<path d="M3720.59 12L3736.18 24H3705L3720.59 12Z" fill="#FDFFF5"/>
<path d="M3705.09 12L3712.88 18H3697.29L3705.09 12Z" fill="#FDFFF5"/>
<path d="M3736.09 0L3751.68 12H3720.5L3736.09 0Z" fill="#FDFFF5"/>
<path d="M3751.59 12L3767.18 24H3736L3751.59 12Z" fill="#FDFFF5"/>
<path d="M3736.09 12L3743.88 18H3728.29L3736.09 12Z" fill="#FDFFF5"/>
<path d="M3767.09 0L3782.68 12H3751.5L3767.09 0Z" fill="#FDFFF5"/>
<path d="M3782.59 12L3798.18 24H3767L3782.59 12Z" fill="#FDFFF5"/>
<path d="M3767.09 12L3774.88 18H3759.29L3767.09 12Z" fill="#FDFFF5"/>
<path d="M4263.09 0L4278.68 12H4247.5L4263.09 0Z" fill="#FDFFF5"/>
<path d="M4278.59 12L4294.18 24H4263L4278.59 12Z" fill="#FDFFF5"/>
<path d="M4263.09 12L4270.88 18H4255.29L4263.09 12Z" fill="#FDFFF5"/>
<path d="M4294.09 0L4309.68 12H4278.5L4294.09 0Z" fill="#FDFFF5"/>
<path d="M4309.59 12L4325.18 24H4294L4309.59 12Z" fill="#FDFFF5"/>
<path d="M4294.09 12L4301.88 18H4286.29L4294.09 12Z" fill="#FDFFF5"/>
<path d="M4325.09 0L4340.68 12H4309.5L4325.09 0Z" fill="#FDFFF5"/>
<path d="M4340.59 12L4356.18 24H4325L4340.59 12Z" fill="#FDFFF5"/>
<path d="M4325.09 12L4332.88 18H4317.29L4325.09 12Z" fill="#FDFFF5"/>
<path d="M4356.09 0L4371.68 12H4340.5L4356.09 0Z" fill="#FDFFF5"/>
<path d="M4371.59 12L4387.18 24H4356L4371.59 12Z" fill="#FDFFF5"/>
<path d="M4356.09 12L4363.88 18H4348.29L4356.09 12Z" fill="#FDFFF5"/>
<path d="M4387.09 0L4402.68 12H4371.5L4387.09 0Z" fill="#FDFFF5"/>
<path d="M4402.59 12L4418.18 24H4387L4402.59 12Z" fill="#FDFFF5"/>
<path d="M4387.09 12L4394.88 18H4379.29L4387.09 12Z" fill="#FDFFF5"/>
<path d="M4418.09 0L4433.68 12H4402.5L4418.09 0Z" fill="#FDFFF5"/>
<path d="M4433.59 12L4449.18 24H4418L4433.59 12Z" fill="#FDFFF5"/>
<path d="M4418.09 12L4425.88 18H4410.29L4418.09 12Z" fill="#FDFFF5"/>
<path d="M4449.09 0L4464.68 12H4433.5L4449.09 0Z" fill="#FDFFF5"/>
<path d="M4464.59 12L4480.18 24H4449L4464.59 12Z" fill="#FDFFF5"/>
<path d="M4449.09 12L4456.88 18H4441.29L4449.09 12Z" fill="#FDFFF5"/>
<path d="M4480.09 0L4495.68 12H4464.5L4480.09 0Z" fill="#FDFFF5"/>
<path d="M4495.59 12L4511.18 24H4480L4495.59 12Z" fill="#FDFFF5"/>
<path d="M4480.09 12L4487.88 18H4472.29L4480.09 12Z" fill="#FDFFF5"/>
<path d="M4511.09 0L4526.68 12H4495.5L4511.09 0Z" fill="#FDFFF5"/>
<path d="M4526.59 12L4542.18 24H4511L4526.59 12Z" fill="#FDFFF5"/>
<path d="M4511.09 12L4518.88 18H4503.29L4511.09 12Z" fill="#FDFFF5"/>
<path d="M4542.09 0L4557.68 12H4526.5L4542.09 0Z" fill="#FDFFF5"/>
<path d="M4557.59 12L4573.18 24H4542L4557.59 12Z" fill="#FDFFF5"/>
<path d="M4542.09 12L4549.88 18H4534.29L4542.09 12Z" fill="#FDFFF5"/>
<path d="M4573.09 0L4588.68 12H4557.5L4573.09 0Z" fill="#FDFFF5"/>
<path d="M4588.59 12L4604.18 24H4573L4588.59 12Z" fill="#FDFFF5"/>
<path d="M4573.09 12L4580.88 18H4565.29L4573.09 12Z" fill="#FDFFF5"/>
<path d="M4604.09 0L4619.68 12H4588.5L4604.09 0Z" fill="#FDFFF5"/>
<path d="M4619.59 12L4635.18 24H4604L4619.59 12Z" fill="#FDFFF5"/>
<path d="M4604.09 12L4611.88 18H4596.29L4604.09 12Z" fill="#FDFFF5"/>
<path d="M4635.09 0L4650.68 12H4619.5L4635.09 0Z" fill="#FDFFF5"/>
<path d="M4650.59 12L4666.18 24H4635L4650.59 12Z" fill="#FDFFF5"/>
<path d="M4635.09 12L4642.88 18H4627.29L4635.09 12Z" fill="#FDFFF5"/>
<path d="M4666.09 0L4681.68 12H4650.5L4666.09 0Z" fill="#FDFFF5"/>
<path d="M4681.59 12L4697.18 24H4666L4681.59 12Z" fill="#FDFFF5"/>
<path d="M4666.09 12L4673.88 18H4658.29L4666.09 12Z" fill="#FDFFF5"/>
<path d="M4697.09 0L4712.68 12H4681.5L4697.09 0Z" fill="#FDFFF5"/>
<path d="M4712.59 12L4728.18 24H4697L4712.59 12Z" fill="#FDFFF5"/>
<path d="M4697.09 12L4704.88 18H4689.29L4697.09 12Z" fill="#FDFFF5"/>
<path d="M4728.09 0L4743.68 12H4712.5L4728.09 0Z" fill="#FDFFF5"/>
<path d="M4743.59 12V24H4728L4743.59 12Z" fill="#FDFFF5"/>
<path d="M4728.09 12L4735.88 18H4720.29L4728.09 12Z" fill="#FDFFF5"/>
<path d="M3488.09 0L3503.68 12H3472.5L3488.09 0Z" fill="#FDFFF5"/>
<path d="M3503.59 12L3519.18 24H3488L3503.59 12Z" fill="#FDFFF5"/>
<path d="M3488.09 12L3495.88 18H3480.29L3488.09 12Z" fill="#FDFFF5"/>
<path d="M3519.09 0L3534.68 12H3503.5L3519.09 0Z" fill="#FDFFF5"/>
<path d="M3534.59 12L3550.18 24H3519L3534.59 12Z" fill="#FDFFF5"/>
<path d="M3519.09 12L3526.88 18H3511.29L3519.09 12Z" fill="#FDFFF5"/>
<path d="M3550.09 0L3565.68 12H3534.5L3550.09 0Z" fill="#FDFFF5"/>
<path d="M3565.59 12L3581.18 24H3550L3565.59 12Z" fill="#FDFFF5"/>
<path d="M3550.09 12L3557.88 18H3542.29L3550.09 12Z" fill="#FDFFF5"/>
<path d="M3581.09 0L3596.68 12H3565.5L3581.09 0Z" fill="#FDFFF5"/>
<path d="M3596.59 12L3612.18 24H3581L3596.59 12Z" fill="#FDFFF5"/>
<path d="M3581.09 12L3588.88 18H3573.29L3581.09 12Z" fill="#FDFFF5"/>
<path d="M3612.09 0L3627.68 12H3596.5L3612.09 0Z" fill="#FDFFF5"/>
<path d="M3627.59 12L3643.18 24H3612L3627.59 12Z" fill="#FDFFF5"/>
<path d="M3612.09 12L3619.88 18H3604.29L3612.09 12Z" fill="#FDFFF5"/>
<path d="M3333.09 0L3348.68 12H3317.5L3333.09 0Z" fill="#FDFFF5"/>
<path d="M3348.59 12L3364.18 24H3333L3348.59 12Z" fill="#FDFFF5"/>
<path d="M3333.09 12L3340.88 18H3325.29L3333.09 12Z" fill="#FDFFF5"/>
<path d="M3364.09 0L3379.68 12H3348.5L3364.09 0Z" fill="#FDFFF5"/>
<path d="M3379.59 12L3395.18 24H3364L3379.59 12Z" fill="#FDFFF5"/>
<path d="M3364.09 12L3371.88 18H3356.29L3364.09 12Z" fill="#FDFFF5"/>
<path d="M3395.09 0L3410.68 12H3379.5L3395.09 0Z" fill="#FDFFF5"/>
<path d="M3410.59 12L3426.18 24H3395L3410.59 12Z" fill="#FDFFF5"/>
<path d="M3395.09 12L3402.88 18H3387.29L3395.09 12Z" fill="#FDFFF5"/>
<path d="M3426.09 0L3441.68 12H3410.5L3426.09 0Z" fill="#FDFFF5"/>
<path d="M3441.59 12L3457.18 24H3426L3441.59 12Z" fill="#FDFFF5"/>
<path d="M3426.09 12L3433.88 18H3418.29L3426.09 12Z" fill="#FDFFF5"/>
<path d="M3457.09 0L3472.68 12H3441.5L3457.09 0Z" fill="#FDFFF5"/>
<path d="M3472.59 12L3488.18 24H3457L3472.59 12Z" fill="#FDFFF5"/>
<path d="M3457.09 12L3464.88 18H3449.29L3457.09 12Z" fill="#FDFFF5"/>
<path d="M946 0L961.589 12H930.412L946 0Z" fill="#FDFFF5"/>
<path d="M961.5 12L977.089 24H945.912L961.5 12Z" fill="#FDFFF5"/>
<path d="M946 12L953.794 18H938.206L946 12Z" fill="#FDFFF5"/>
<path d="M977 0L992.589 12H961.412L977 0Z" fill="#FDFFF5"/>
<path d="M992.5 12L1008.09 24H976.912L992.5 12Z" fill="#FDFFF5"/>
<path d="M977 12L984.794 18H969.206L977 12Z" fill="#FDFFF5"/>
<path d="M1008 0L1023.59 12H992.412L1008 0Z" fill="#FDFFF5"/>
<path d="M1023.5 12L1039.09 24H1007.91L1023.5 12Z" fill="#FDFFF5"/>
<path d="M1008 12L1015.79 18H1000.21L1008 12Z" fill="#FDFFF5"/>
<path d="M1039 0L1054.59 12H1023.41L1039 0Z" fill="#FDFFF5"/>
<path d="M1054.5 12L1070.09 24H1038.91L1054.5 12Z" fill="#FDFFF5"/>
<path d="M1039 12L1046.79 18H1031.21L1039 12Z" fill="#FDFFF5"/>
<path d="M1070 0L1085.59 12H1054.41L1070 0Z" fill="#FDFFF5"/>
<path d="M1085.5 12L1101.09 24H1069.91L1085.5 12Z" fill="#FDFFF5"/>
<path d="M1069 12L1076.79 18H1061.21L1069 12Z" fill="#FDFFF5"/>
<path d="M16.0001 0L31.5885 12H0.411621L16.0001 0Z" fill="#FDFFF5"/>
<path d="M16.0001 0L31.5885 12H0.411621L16.0001 0Z" fill="#FDFFF5"/>
<path d="M31.5001 12L47.0885 24H15.9116L31.5001 12Z" fill="#FDFFF5"/>
<path d="M0.500078 12L16.0885 24H0.411621L0.500078 12Z" fill="#FDFFF5"/>
<path d="M47.0001 0L62.5885 12H31.4116L47.0001 0Z" fill="#FDFFF5"/>
<path d="M62.5001 12L78.0885 24H46.9116L62.5001 12Z" fill="#FDFFF5"/>
<path d="M47.0001 12L54.7943 18H39.2058L47.0001 12Z" fill="#FDFFF5"/>
<path d="M16.0001 12L23.7943 18H8.20585L16.0001 12Z" fill="#FDFFF5"/>
<path d="M78.0001 0L93.5885 12H62.4116L78.0001 0Z" fill="#FDFFF5"/>
<path d="M93.5001 12L109.089 24H77.9116L93.5001 12Z" fill="#FDFFF5"/>
<path d="M78.0001 12L85.7943 18H70.2058L78.0001 12Z" fill="#FDFFF5"/>
<path d="M109 0L124.589 12H93.4116L109 0Z" fill="#FDFFF5"/>
<path d="M124.5 12L140.089 24H108.912L124.5 12Z" fill="#FDFFF5"/>
<path d="M109 12L116.794 18H101.206L109 12Z" fill="#FDFFF5"/>
<path d="M140 0L155.589 12H124.412L140 0Z" fill="#FDFFF5"/>
<path d="M155.5 12L171.089 24H139.912L155.5 12Z" fill="#FDFFF5"/>
<path d="M140 12L147.794 18H132.206L140 12Z" fill="#FDFFF5"/>
<path d="M791 0L806.589 12H775.412L791 0Z" fill="#FDFFF5"/>
<path d="M806.5 12L822.089 24H790.912L806.5 12Z" fill="#FDFFF5"/>
<path d="M791 12L798.794 18H783.206L791 12Z" fill="#FDFFF5"/>
<path d="M822 0L837.589 12H806.412L822 0Z" fill="#FDFFF5"/>
<path d="M837.5 12L853.089 24H821.912L837.5 12Z" fill="#FDFFF5"/>
<path d="M822 12L829.794 18H814.206L822 12Z" fill="#FDFFF5"/>
<path d="M853 0L868.589 12H837.412L853 0Z" fill="#FDFFF5"/>
<path d="M868.5 12L884.089 24H852.912L868.5 12Z" fill="#FDFFF5"/>
<path d="M853 12L860.794 18H845.206L853 12Z" fill="#FDFFF5"/>
<path d="M884 0L899.589 12H868.412L884 0Z" fill="#FDFFF5"/>
<path d="M899.5 12L915.089 24H883.912L899.5 12Z" fill="#FDFFF5"/>
<path d="M884 12L891.794 18H876.206L884 12Z" fill="#FDFFF5"/>
<path d="M915 0L930.589 12H899.412L915 0Z" fill="#FDFFF5"/>
<path d="M930.5 12L946.089 24H914.912L930.5 12Z" fill="#FDFFF5"/>
<path d="M915 12L922.794 18H907.206L915 12Z" fill="#FDFFF5"/>
<path d="M636 0L651.589 12H620.412L636 0Z" fill="#FDFFF5"/>
<path d="M651.5 12L667.089 24H635.912L651.5 12Z" fill="#FDFFF5"/>
<path d="M636 12L643.794 18H628.206L636 12Z" fill="#FDFFF5"/>
<path d="M667 0L682.589 12H651.412L667 0Z" fill="#FDFFF5"/>
<path d="M682.5 12L698.089 24H666.912L682.5 12Z" fill="#FDFFF5"/>
<path d="M667 12L674.794 18H659.206L667 12Z" fill="#FDFFF5"/>
<path d="M698 0L713.589 12H682.412L698 0Z" fill="#FDFFF5"/>
<path d="M713.5 12L729.089 24H697.912L713.5 12Z" fill="#FDFFF5"/>
<path d="M698 12L705.794 18H690.206L698 12Z" fill="#FDFFF5"/>
<path d="M729 0L744.589 12H713.412L729 0Z" fill="#FDFFF5"/>
<path d="M744.5 12L760.089 24H728.912L744.5 12Z" fill="#FDFFF5"/>
<path d="M729 12L736.794 18H721.206L729 12Z" fill="#FDFFF5"/>
<path d="M760 0L775.589 12H744.412L760 0Z" fill="#FDFFF5"/>
<path d="M775.5 12L791.089 24H759.912L775.5 12Z" fill="#FDFFF5"/>
<path d="M760 12L767.794 18H752.206L760 12Z" fill="#FDFFF5"/>
<path d="M481 0L496.589 12H465.412L481 0Z" fill="#FDFFF5"/>
<path d="M496.5 12L512.089 24H480.912L496.5 12Z" fill="#FDFFF5"/>
<path d="M481 12L488.794 18H473.206L481 12Z" fill="#FDFFF5"/>
<path d="M512 0L527.589 12H496.412L512 0Z" fill="#FDFFF5"/>
<path d="M527.5 12L543.089 24H511.912L527.5 12Z" fill="#FDFFF5"/>
<path d="M512 12L519.794 18H504.206L512 12Z" fill="#FDFFF5"/>
<path d="M543 0L558.589 12H527.412L543 0Z" fill="#FDFFF5"/>
<path d="M558.5 12L574.089 24H542.912L558.5 12Z" fill="#FDFFF5"/>
<path d="M543 12L550.794 18H535.206L543 12Z" fill="#FDFFF5"/>
<path d="M574 0L589.589 12H558.412L574 0Z" fill="#FDFFF5"/>
<path d="M589.5 12L605.089 24H573.912L589.5 12Z" fill="#FDFFF5"/>
<path d="M574 12L581.794 18H566.206L574 12Z" fill="#FDFFF5"/>
<path d="M605 0L620.589 12H589.412L605 0Z" fill="#FDFFF5"/>
<path d="M620.5 12L636.089 24H604.912L620.5 12Z" fill="#FDFFF5"/>
<path d="M605 12L612.794 18H597.206L605 12Z" fill="#FDFFF5"/>
<path d="M1101 0L1116.59 12H1085.41L1101 0Z" fill="#FDFFF5"/>
<path d="M1116.5 12L1132.09 24H1100.91L1116.5 12Z" fill="#FDFFF5"/>
<path d="M1101 12L1108.79 18H1093.21L1101 12Z" fill="#FDFFF5"/>
<path d="M1132 0L1147.59 12H1116.41L1132 0Z" fill="#FDFFF5"/>
<path d="M1147.5 12L1163.09 24H1131.91L1147.5 12Z" fill="#FDFFF5"/>
<path d="M1132 12L1139.79 18H1124.21L1132 12Z" fill="#FDFFF5"/>
<path d="M1163 0L1178.59 12H1147.41L1163 0Z" fill="#FDFFF5"/>
<path d="M1178.5 12L1194.09 24H1162.91L1178.5 12Z" fill="#FDFFF5"/>
<path d="M1163 12L1170.79 18H1155.21L1163 12Z" fill="#FDFFF5"/>
<path d="M1194 0L1209.59 12H1178.41L1194 0Z" fill="#FDFFF5"/>
<path d="M1209.5 12L1225.09 24H1193.91L1209.5 12Z" fill="#FDFFF5"/>
<path d="M1194 12L1201.79 18H1186.21L1194 12Z" fill="#FDFFF5"/>
<path d="M1225 0L1240.59 12H1209.41L1225 0Z" fill="#FDFFF5"/>
<path d="M1240.5 12L1256.09 24H1224.91L1240.5 12Z" fill="#FDFFF5"/>
<path d="M1225 12L1232.79 18H1217.21L1225 12Z" fill="#FDFFF5"/>
<path d="M1256 0L1271.59 12H1240.41L1256 0Z" fill="#FDFFF5"/>
<path d="M1271.5 12L1287.09 24H1255.91L1271.5 12Z" fill="#FDFFF5"/>
<path d="M1256 12L1263.79 18H1248.21L1256 12Z" fill="#FDFFF5"/>
<path d="M1287 0L1302.59 12H1271.41L1287 0Z" fill="#FDFFF5"/>
<path d="M1302.5 12L1318.09 24H1286.91L1302.5 12Z" fill="#FDFFF5"/>
<path d="M1287 12L1294.79 18H1279.21L1287 12Z" fill="#FDFFF5"/>
<path d="M1318 0L1333.59 12H1302.41L1318 0Z" fill="#FDFFF5"/>
<path d="M1333.5 12L1349.09 24H1317.91L1333.5 12Z" fill="#FDFFF5"/>
<path d="M1318 12L1325.79 18H1310.21L1318 12Z" fill="#FDFFF5"/>
<path d="M1349 0L1364.59 12H1333.41L1349 0Z" fill="#FDFFF5"/>
<path d="M1364.5 12L1380.09 24H1348.91L1364.5 12Z" fill="#FDFFF5"/>
<path d="M1349 12L1356.79 18H1341.21L1349 12Z" fill="#FDFFF5"/>
<path d="M1380 0L1395.59 12H1364.41L1380 0Z" fill="#FDFFF5"/>
<path d="M1395.5 12L1411.09 24H1379.91L1395.5 12Z" fill="#FDFFF5"/>
<path d="M1380 12L1387.79 18H1372.21L1380 12Z" fill="#FDFFF5"/>
<path d="M1411 0L1426.59 12H1395.41L1411 0Z" fill="#FDFFF5"/>
<path d="M1426.5 12L1442.09 24H1410.91L1426.5 12Z" fill="#FDFFF5"/>
<path d="M1411 12L1418.79 18H1403.21L1411 12Z" fill="#FDFFF5"/>
<path d="M1442 0L1457.59 12H1426.41L1442 0Z" fill="#FDFFF5"/>
<path d="M1457.5 12L1473.09 24H1441.91L1457.5 12Z" fill="#FDFFF5"/>
<path d="M1442 12L1449.79 18H1434.21L1442 12Z" fill="#FDFFF5"/>
<path d="M1473 0L1488.59 12H1457.41L1473 0Z" fill="#FDFFF5"/>
<path d="M1488.5 12L1504.09 24H1472.91L1488.5 12Z" fill="#FDFFF5"/>
<path d="M1473 12L1480.79 18H1465.21L1473 12Z" fill="#FDFFF5"/>
<path d="M1504 0L1519.59 12H1488.41L1504 0Z" fill="#FDFFF5"/>
<path d="M1519.5 12L1535.09 24H1503.91L1519.5 12Z" fill="#FDFFF5"/>
<path d="M1504 12L1511.79 18H1496.21L1504 12Z" fill="#FDFFF5"/>
<path d="M1535 0L1550.59 12H1519.41L1535 0Z" fill="#FDFFF5"/>
<path d="M1550.5 12L1566.09 24H1534.91L1550.5 12Z" fill="#FDFFF5"/>
<path d="M1535 12L1542.79 18H1527.21L1535 12Z" fill="#FDFFF5"/>
<path d="M1566 0L1581.59 12H1550.41L1566 0Z" fill="#FDFFF5"/>
<path d="M1581.5 12V24H1565.91L1581.5 12Z" fill="#FDFFF5"/>
<path d="M1566 12L1573.79 18H1558.21L1566 12Z" fill="#FDFFF5"/>
<path d="M326 0L341.589 12H310.412L326 0Z" fill="#FDFFF5"/>
<path d="M341.5 12L357.089 24H325.912L341.5 12Z" fill="#FDFFF5"/>
<path d="M326 12L333.794 18H318.206L326 12Z" fill="#FDFFF5"/>
<path d="M357 0L372.589 12H341.412L357 0Z" fill="#FDFFF5"/>
<path d="M372.5 12L388.089 24H356.912L372.5 12Z" fill="#FDFFF5"/>
<path d="M357 12L364.794 18H349.206L357 12Z" fill="#FDFFF5"/>
<path d="M388 0L403.589 12H372.412L388 0Z" fill="#FDFFF5"/>
<path d="M403.5 12L419.089 24H387.912L403.5 12Z" fill="#FDFFF5"/>
<path d="M388 12L395.794 18H380.206L388 12Z" fill="#FDFFF5"/>
<path d="M419 0L434.589 12H403.412L419 0Z" fill="#FDFFF5"/>
<path d="M434.5 12L450.089 24H418.912L434.5 12Z" fill="#FDFFF5"/>
<path d="M419 12L426.794 18H411.206L419 12Z" fill="#FDFFF5"/>
<path d="M450 0L465.589 12H434.412L450 0Z" fill="#FDFFF5"/>
<path d="M465.5 12L481.089 24H449.912L465.5 12Z" fill="#FDFFF5"/>
<path d="M450 12L457.794 18H442.206L450 12Z" fill="#FDFFF5"/>
<path d="M171 0L186.589 12H155.412L171 0Z" fill="#FDFFF5"/>
<path d="M186.5 12L202.089 24H170.912L186.5 12Z" fill="#FDFFF5"/>
<path d="M171 12L178.794 18H163.206L171 12Z" fill="#FDFFF5"/>
<path d="M202 0L217.589 12H186.412L202 0Z" fill="#FDFFF5"/>
<path d="M217.5 12L233.089 24H201.912L217.5 12Z" fill="#FDFFF5"/>
<path d="M202 12L209.794 18H194.206L202 12Z" fill="#FDFFF5"/>
<path d="M233 0L248.589 12H217.412L233 0Z" fill="#FDFFF5"/>
<path d="M248.5 12L264.089 24H232.912L248.5 12Z" fill="#FDFFF5"/>
<path d="M233 12L240.794 18H225.206L233 12Z" fill="#FDFFF5"/>
<path d="M264 0L279.589 12H248.412L264 0Z" fill="#FDFFF5"/>
<path d="M279.5 12L295.089 24H263.912L279.5 12Z" fill="#FDFFF5"/>
<path d="M264 12L271.794 18H256.206L264 12Z" fill="#FDFFF5"/>
<path d="M295 0L310.589 12H279.412L295 0Z" fill="#FDFFF5"/>
<path d="M310.5 12L326.089 24H294.912L310.5 12Z" fill="#FDFFF5"/>
<path d="M295 12L302.794 18H287.206L295 12Z" fill="#FDFFF5"/>
</svg>
